<svg version="1.1" xmlns="http://www.w3.org/2000/svg" xmlns:xlink="http://www.w3.org/1999/xlink" width="83" height="84" viewBox="0,0,252.94792,256"><g fill="none" fill-rule="nonzero" stroke="none" stroke-width="1" stroke-linecap="butt" stroke-linejoin="miter" stroke-miterlimit="10" stroke-dasharray="" stroke-dashoffset="0" font-family="none" font-weight="none" font-size="none" text-anchor="none" style="mix-blend-mode: normal"><g transform="translate(0.28733,0.00004) scale(3.04762,3.04762)"><path d="M4.14625,32.2783c0.74499,-0.5426 1.03011,-1.5175 0.699,-2.3821l-1.46239,-3.7709c-0.41388,-1.0669 0.13796,-2.2718 1.21406,-2.6581l3.78014,-1.352c0.87375,-0.3127 1.4256,-1.1681 1.34282,-2.0878l-0.3495,-4.0285c-0.10117,-1.1405 0.76342,-2.143 1.91302,-2.2074l3.9917,-0.2299c0.929,-0.0552 1.7015,-0.7266 1.8763,-1.628l0.8002,-3.95484c0.2299,-1.12209 1.3428,-1.83948 2.4557,-1.58196l3.8905,0.91055c0.9013,0.21154 1.8303,-0.21154 2.2626,-1.03931l1.867,-3.5502c0.5335,-1.02092 1.8119,-1.38881 2.8052,-0.82777l3.4767,1.96825c0.8093,0.45987 1.821,0.31271 2.4741,-0.3587l2.7868,-2.87879c0.8002,-0.82777 2.1246,-0.82777 2.9248,0l2.7868,2.87879c0.6438,0.67141 1.6647,0.81857 2.4741,0.3587l3.4766,-1.96825c1.0025,-0.57024 2.2718,-0.19315 2.8052,0.82777l1.8671,3.5502c0.4323,0.81857 1.3612,1.25085 2.2626,1.03931l3.8905,-0.91055c1.122,-0.25752 2.2349,0.45068 2.4557,1.58196l0.8002,3.95484c0.1839,0.9106 0.9565,1.582 1.8762,1.628l3.9917,0.2299c1.1497,0.0644 2.0142,1.0669 1.9131,2.2074l-0.3495,4.0285c-0.0828,0.9197 0.469,1.7843 1.3428,2.0878l3.7801,1.352c1.0761,0.3863 1.628,1.582 1.2141,2.6581l-1.4624,3.7709c-0.3311,0.8646 -0.046,1.8395 0.699,2.3821l3.2559,2.3822c0.9197,0.6714 1.1129,1.9774 0.4139,2.888l-2.4649,3.2098c-0.5611,0.7358 -0.5611,1.7476 0,2.4741l2.4557,3.2099c0.699,0.9106 0.5058,2.2074 -0.4139,2.888l-3.2559,2.3822c-0.745,0.5426 -1.0301,1.5175 -0.699,2.3821l1.4624,3.7709c0.4139,1.0669 -0.138,2.2718 -1.2141,2.6581l-3.7801,1.352c-0.8738,0.3127 -1.4256,1.1681 -1.3428,2.0878l0.3495,4.0285c0.1011,1.1405 -0.7634,2.143 -1.9131,2.2074l-3.9917,0.2299c-0.9197,0.0552 -1.6923,0.7266 -1.8762,1.628l-0.8002,3.9548c-0.23,1.1313 -1.3428,1.8395 -2.4649,1.582l-3.8905,-0.9105c-0.9014,-0.2116 -1.8395,0.2115 -2.2718,1.0393l-1.8671,3.5594c-0.5334,1.0209 -1.8119,1.398 -2.8144,0.8277l-3.4674,-1.9682c-0.8094,-0.4599 -1.8211,-0.3127 -2.4741,0.3587l-2.7868,2.8788c-0.8002,0.8277 -2.1246,0.8277 -2.9248,0l-2.7868,-2.8788c-0.6438,-0.6714 -1.6648,-0.8186 -2.4741,-0.3587l-3.4675,1.9682c-1.0025,0.5703 -2.2717,0.1932 -2.8144,-0.8277l-1.867,-3.5594c-0.4323,-0.8186 -1.3613,-1.2509 -2.2718,-1.0393l-3.8905,0.9105c-1.1221,0.2575 -2.235,-0.4507 -2.4649,-1.582l-0.8002,-3.9548c-0.1839,-0.9106 -0.9565,-1.5728 -1.8763,-1.628l-3.9916,-0.2299c-1.1497,-0.0644 -2.01428,-1.0669 -1.91311,-2.2074l0.3495,-4.0285c0.08278,-0.9197 -0.46906,-1.7843 -1.34282,-2.0878l-3.78014,-1.352c-1.07609,-0.3863 -1.62794,-1.582 -1.21406,-2.6581l1.46239,-3.7709c0.33111,-0.8646 0.04599,-1.8395 -0.699,-2.3821l-3.25588,-2.3822c-0.91974,-0.6714 -1.11289,-1.9774 -0.41388,-2.888l2.45571,-3.2099c0.56104,-0.7265 0.56104,-1.7475 0,-2.4741l-2.46491,-3.2098c-0.699,-0.9106 -0.50586,-2.2074 0.41388,-2.888l3.25588,-2.3822z" fill="#2dc790"></path><path d="M46.2704,41.9909c0,2.6673 -2.1614,4.8286 -4.8286,4.8286c-2.6673,0 -4.8287,-2.1613 -4.8287,-4.8286c0,-2.6672 2.1614,-4.8286 4.8287,-4.8286c2.6672,0 4.8286,2.1614 4.8286,4.8286zM57.1601,51.0504c0.2668,1.0669 0.5059,2.1154 0.6623,3.1271c0.9105,5.6932 -0.1012,9.6941 -2.842,11.276c-0.8094,0.4691 -1.7292,0.699 -2.7317,0.699c-2.4005,0 -5.2977,-1.3152 -8.4524,-3.8813c-0.7818,-0.6346 -1.5728,-1.3612 -2.3545,-2.1246c-0.7818,0.7634 -1.5728,1.49 -2.3546,2.1246c-3.1547,2.5569 -6.0519,3.8813 -8.4524,3.8813c-1.0025,0 -1.9223,-0.2299 -2.7316,-0.699c-2.7409,-1.5819 -3.7526,-5.5828 -2.842,-11.276c0.1655,-1.0025 0.3955,-2.051 0.6622,-3.1271c-6.9165,-1.9867 -11.368,-5.2702 -11.368,-9.0595c0,-3.7893 4.4515,-7.0728 11.368,-9.0594c-0.2667,-1.0669 -0.5059,-2.1155 -0.6622,-3.1272c-0.9106,-5.6932 0.1011,-9.694 2.842,-11.276c2.7408,-1.5912 6.7141,-0.4507 11.184,3.1823c0.7818,0.6346 1.5728,1.3612 2.3546,2.1246c0.7817,-0.7634 1.5727,-1.49 2.3545,-2.1246c4.47,-3.633 8.4432,-4.7643 11.1841,-3.1823c2.7408,1.582 3.7525,5.5828 2.842,11.276c-0.1656,1.0025 -0.3955,2.0511 -0.6623,3.1272c6.9165,1.9866 11.368,5.2701 11.368,9.0594c0,3.7893 -4.4515,7.0728 -11.368,9.0595zM43.0881,25.5183c1.5636,1.6924 3.1087,3.6054 4.5803,5.6932c2.5753,0.2392 4.9942,0.6163 7.22,1.1313c0.2483,-0.9933 0.4691,-1.9682 0.6162,-2.9064c0.7358,-4.5895 0.1196,-7.8178 -1.6923,-8.8663c-0.4507,-0.2575 -0.9841,-0.3863 -1.582,-0.3863c-1.8027,0 -4.2308,1.1589 -6.9348,3.3571c-0.7358,0.5978 -1.4716,1.2692 -2.1982,1.9866zM51.2922,41.9909c-0.699,-1.4532 -1.4716,-2.9064 -2.3086,-4.3596c-0.8369,-1.444 -1.7107,-2.842 -2.6212,-4.1664c-1.582,-0.1196 -3.2191,-0.184 -4.9298,-0.184c-1.7108,0 -3.3571,0.0644 -4.9298,0.184c-0.9014,1.3244 -1.7843,2.7224 -2.6213,4.1664c-0.837,1.4532 -1.6096,2.9064 -2.3086,4.3596c0.699,1.4532 1.4716,2.9064 2.3086,4.3596c0.837,1.444 1.7107,2.842 2.6213,4.1664c1.5819,0.1196 3.219,0.184 4.9298,0.184c1.7107,0 3.3478,-0.0644 4.9298,-0.184c0.9013,-1.3244 1.7843,-2.7224 2.6212,-4.1664c0.837,-1.4532 1.6096,-2.9064 2.3086,-4.3596zM51.0255,47.5277c-0.5335,0.9198 -1.0853,1.8119 -1.6464,2.6949c1.7291,-0.2207 3.3479,-0.5059 4.8563,-0.8462c-0.4691,-1.5083 -1.0393,-3.0443 -1.7016,-4.6171c-0.4782,0.929 -0.9749,1.8487 -1.5083,2.7776zM44.5965,52.9818c-1.0301,0.046 -2.0786,0.0736 -3.1547,0.0736c-1.0761,0 -2.1154,-0.0276 -3.1547,-0.0736c1.0301,1.3612 2.0878,2.6213 3.1547,3.7802c1.0669,-1.1589 2.1246,-2.419 3.1547,-3.7802zM31.8581,47.5277c-0.5335,-0.9197 -1.0302,-1.8486 -1.5084,-2.7684c-0.6622,1.5728 -1.2325,3.1179 -1.7015,4.6171c1.5083,0.3403 3.1271,0.6255 4.8562,0.8462c-0.561,-0.8738 -1.1129,-1.7751 -1.6463,-2.6949zM31.8581,36.4541c0.5334,-0.9198 1.0853,-1.8119 1.6463,-2.6949c-1.7291,0.2208 -3.3479,0.5059 -4.8562,0.8462c0.469,1.4992 1.0393,3.0443 1.7015,4.6171c0.4782,-0.929 0.9749,-1.8487 1.5084,-2.7684zM38.2871,30.9908c1.0301,-0.046 2.0878,-0.0736 3.1547,-0.0736c1.0669,0 2.1154,0.0276 3.1547,0.0736c-1.0301,-1.3612 -2.0878,-2.6213 -3.1547,-3.7801c-1.0669,1.1588 -2.1246,2.4189 -3.1547,3.7801zM52.5338,39.2225c0.6623,-1.5728 1.2325,-3.1179 1.7016,-4.6171c-1.5084,-0.3403 -3.1272,-0.6254 -4.8563,-0.8462c0.5611,0.8738 1.1129,1.7751 1.6464,2.6949c0.5334,0.9197 1.0301,1.8486 1.5083,2.7776zM28.0043,32.3428c2.2166,-0.5058 4.6447,-0.8921 7.2108,-1.1313c1.4716,-2.0786 3.0076,-3.9916 4.5803,-5.6932c-0.7358,-0.7082 -1.4716,-1.3888 -2.1982,-1.9866c-2.704,-2.1982 -5.1321,-3.3571 -6.9348,-3.3571c-0.5978,0 -1.1313,0.1288 -1.582,0.3863c-1.8119,1.0485 -2.4281,4.2768 -1.6923,8.8663c0.1472,0.9382 0.3679,1.9131 0.6162,2.9064zM26.358,48.7878c0.6806,-2.1982 1.5728,-4.4883 2.6305,-6.7969c-1.0669,-2.3177 -1.9499,-4.5987 -2.6305,-6.7969c-6.0151,1.7199 -9.6573,4.3412 -9.6573,6.7969c0,2.4557 3.6422,5.077 9.6573,6.7969zM39.7954,58.4543c-1.5635,-1.6923 -3.1087,-3.6054 -4.5803,-5.6932c-2.5753,-0.2392 -4.9942,-0.6162 -7.2108,-1.1313c-0.2483,0.9933 -0.469,1.9682 -0.6162,2.9064c-0.7358,4.5895 -0.1196,7.8178 1.6923,8.8663c1.8027,1.0393 4.9115,-0.0368 8.5168,-2.9708c0.7358,-0.5978 1.4716,-1.2692 2.1982,-1.9866zM54.8792,51.639c-2.2166,0.5059 -4.6447,0.8921 -7.22,1.1313c-1.4716,2.0878 -3.0075,3.9917 -4.5803,5.6932c0.7358,0.7082 1.4716,1.3888 2.1982,1.9866c3.6054,2.934 6.7233,4.0193 8.526,2.9708c1.8119,-1.0485 2.4281,-4.2768 1.6923,-8.8663c-0.1471,-0.9382 -0.3679,-1.9131 -0.6162,-2.9064zM66.1736,41.9909c0,-2.4557 -3.6422,-5.077 -9.6573,-6.7969c-0.6806,2.1982 -1.5727,4.4884 -2.6396,6.7969c1.0669,2.3178 1.9498,4.5987 2.6396,6.7969c6.0151,-1.7199 9.6573,-4.3412 9.6573,-6.7969z" fill="#191b22"></path></g></g></svg>